# xmcd
#
# Track frame offsets: 
#        150
#        11132
#        22650
#        34260
#        44385
#        57060
#        67365
#        81650
#        94105
#        111675
#        120530
#        129400
#        138677
#        148362
#
# Disc length: 2109 seconds
#
# Revision: 0
# Processed by: cddbd v1.5.1PL0 Copyright (c) Steve Scherf et al.
# Submitted via: ExactAudioCopy v0.95a5
#
DISCID=d7083b0e
DTITLE=Howard White - Western Swing And Steel Instrumental
DYEAR=1992
DGENRE=Country
TTITLE0=Jealous Heart
TTITLE1=Blue Eyes Crying In The Rain
TTITLE2=Roly Poly
TTITLE3=Deep Water
TTITLE4=Rose Of Old Pawnee
TTITLE5=San Antonio Rose
TTITLE6=Faded Love
TTITLE7=Midnight
TTITLE8=Columbus Stockade Blues
TTITLE9=Before I Met You
TTITLE10=Steel Guitar Dove
TTITLE11=Ensonata
TTITLE12=Rosette
TTITLE13=Steel Guitar Swallow
EXTD=
EXTT0=
EXTT1=
EXTT2=
EXTT3=
EXTT4=
EXTT5=
EXTT6=
EXTT7=
EXTT8=
EXTT9=
EXTT10=
EXTT11=
EXTT12=
EXTT13=
PLAYORDER=
